<?xml version="1.0" encoding="utf-8"?>
<!-- Generator: Adobe Illustrator 22.1.0, SVG Export Plug-In . SVG Version: 6.00 Build 0)  -->
<svg version="1.1" xmlns="http://www.w3.org/2000/svg" xmlns:xlink="http://www.w3.org/1999/xlink" x="0px" y="0px"
	 viewBox="0 0 100 125" style="enable-background:new 0 0 100 125;" xml:space="preserve">
<g id="Capa_2">
</g>
<g id="Capa_1">
	<path d="M98.4,26.5V24l-0.9,0.3c-6.1,2-20.4,6.6-21.2,7.3c-0.6,0.4-0.4,1.3,0,2.3c-0.8,0.3-1.6,0.5-2.3,0.7
		c-1.3,0.4-2.3,0.6-2.9,0.7c-1.5,0.2-4.7-0.3-11.1-4.1c-3.7-2.2-7.7-1-9.3-0.3c-1.4,0.5-6.5,2.1-6.6,2.1c0,0-0.4,0.1-1.1,0.4
		c-3.3,1.1-10,3.3-10.9,3.5c0,0-0.1,0-0.5-0.1c-0.7-0.2-1.9-0.7-3.3-1.3c0.3-3.3-1.7-3.8-1.7-3.8L2,20.2L1.5,66.8l12.7,5.7l3-7.7
		c0.6,0.2,1.4,0.5,2.2,0.5c0.4,0,0.8,0,1.1-0.2c1-0.3,1.8-1,2.4-2.2c0.1-0.2,0.2-0.5,0.4-0.9l6.7,4.3c-0.7,2.4-0.3,4.4,1.2,5.4
		c1,0.7,2.2,1.1,3,1.1c0,1.9,0.8,3.5,2.1,4.1c0.8,0.4,2,0.6,3,0.6c0.5,0,1-0.1,1.4-0.2c0.5,1.2,1.5,2.1,3,2.4
		c0.4,0.1,1.1,0.2,1.9,0.2c0.9,0,1.8-0.1,2.4-0.5c0.6,0.8,1.5,1.3,2.7,1.5c0.3,0,0.6,0.1,0.9,0.1c2.3,0,4-1.3,4.3-2.5
		c1,0.7,3,1.8,4.7,1.8c0.9,0,1.7-0.3,2.4-1c1.1-1.2,1.4-2.4,1.4-3.2c0.4,0.1,0.8,0.2,1.3,0.2c0.9,0,1.9-0.3,2.9-1.1
		c0.7-0.6,1.1-1.5,1.1-2.4c0.2,0.1,0.4,0.1,0.6,0.1c0.1,0,0.3,0,0.4,0c1.3,0,2.7-0.7,4.3-2c0.9-0.8,1.3-1.8,1.1-3.1l0.1,0.1
		c0.5-0.5,1-1.1,1.4-1.6c0.3,0.1,0.6,0.2,1.1,0.2c0.9,0,2.2-0.3,4.1-1c0.5,2,2,6.7,5.9,6.7c0,0,0,0,0,0c0.4,0,0.7,0,1.1-0.1
		c5.1-1.1,8-2.5,8.2-2.6l0.4-0.2L98.4,26.5z M22.3,60.9c-0.2,0.6-0.4,1.1-0.6,1.4c-0.4,0.8-0.9,1.2-1.5,1.4c-0.9,0.3-1.8,0-2.5-0.3
		c4-10.4,8.7-22.4,9.8-25.3c0.1-0.4,0.3-0.7,0.3-1.1c1,0.4,1.8,0.8,2.4,1C29.1,41.4,24.3,55.7,22.3,60.9z M34.4,71.4
		c-0.4,0-1.3-0.2-2.3-0.8c-1-0.7-1.2-2.3-0.5-4.4c0.1-0.4,0.3-0.9,0.6-1.4c0.1-0.1,0.1-0.2,0.2-0.4c0.2,0.8,0.7,1.5,1.8,1.9
		c0.3,0.1,0.5,0.1,0.8,0.1c0.4,0,0.8-0.1,1.1-0.3c0.2-0.1,0.3-0.2,0.5-0.4c0,0,0,0.1,0,0.1l0,0c-0.3,0.4-0.6,0.9-0.9,1.7
		C35,68.9,34.6,70.2,34.4,71.4z M33.2,63.5c1-1,2.1-0.6,2.3-0.5l0.2,0.1c0,0,0.5,0.1,0.8,0.5c0.1,0.2,0.2,0.4,0.2,0.6
		c-0.2,0.4-0.5,0.9-1,1.2c-0.4,0.2-0.8,0.2-1.2,0.1C33.2,65.2,33.1,64,33.2,63.5z M40.4,75.9C40.4,75.9,40.4,75.9,40.4,75.9
		C40.4,75.9,40.4,75.9,40.4,75.9L40.4,75.9z M41.9,69.7c-0.3,0.5-0.6,1.2-0.8,1.9c-0.6,1.6-0.8,3-0.7,4.2c-0.5,0.2-2,0.2-3.2-0.3
		c-0.9-0.5-1.4-1.7-1.2-3.3c0.1-1.1,0.5-2.4,1.1-3.9c0.2-0.3,0.3-0.6,0.4-0.9c0.2,0.8,0.7,1.9,1.9,2.3c0.2,0.1,0.4,0.1,0.6,0.1
		c0.4,0,0.8-0.1,1.2-0.4c0.4-0.3,0.8-0.7,1-1.1C42.3,68.6,42.2,69.1,41.9,69.7L41.9,69.7z M38.3,66.4c1.4-1.6,2.9-0.9,3-0.8
		c0.1,0.1,0.6,0.4,0.9,1c-0.1,0.5-0.6,1.5-1.3,2c-0.4,0.3-0.8,0.3-1.1,0.2C38.4,68.4,38.3,66.9,38.3,66.4z M44.2,78.2
		c-0.9-0.2-1.8-0.6-2.1-2c-0.2-1,0-2.4,0.6-4.1c0.2-0.6,0.4-1.1,0.7-1.6c0.2-0.3,0.3-0.5,0.5-0.8c0,0.4,0.2,0.8,0.4,1.2
		c0.3,0.5,0.9,0.9,1.6,1c0.2,0,0.3,0,0.5,0c0.6,0,1.1-0.2,1.5-0.6c0.6-0.5,0.9-1.4,1.1-2c0.1,0.2,0.1,0.5,0,0.7l0.1,0
		c-0.5,0.7-0.9,1.6-1.2,2.8c-0.6,2.4-0.7,4-0.4,5.3L47.4,78C47,78.3,45.3,78.5,44.2,78.2z M44.7,68.7c1.4-1.2,2.7-0.8,2.9-0.7
		c0,0,0.4,0.2,0.7,0.4c0,0.4-0.2,1.7-0.9,2.3c-0.4,0.3-0.8,0.4-1.3,0.3c-0.5-0.1-0.8-0.3-1-0.6C44.6,69.8,44.8,68.8,44.7,68.7
		L44.7,68.7z M52.3,70c0.3,0,0.6,0.1,0.6,0.1l0.3,0.1c0.2,0,0.3,0.1,0.4,0.2c0.1,0.1,0.2,0.3,0.2,0.4c0,0.3-0.1,1.1-0.6,1.6
		c-0.4,0.4-0.8,0.5-1.4,0.4c-1.3-0.2-1.5-1-1.5-1.4c0.1-0.2,0.2-0.4,0.3-0.5C51.1,70.3,51.7,70,52.3,70z M54.5,78
		c-0.1,0.4-1.3,1.6-3.4,1.3c-1.3-0.2-1.7-0.7-1.8-1.3c-0.3-0.9-0.2-2.5,0.4-4.7c0.1-0.3,0.1-0.5,0.2-0.7c0.3,0.5,0.9,1,1.8,1.1
		c0.2,0,0.3,0,0.5,0c0.6,0,1.2-0.2,1.7-0.7c0.1-0.1,0.2-0.3,0.3-0.4c0,1.3-0.1,3-0.3,4.2l-0.1,0.7l0.8,0.3L54.5,78z M76.8,65
		c-0.3,0.4-0.6,0.9-1.1,1.4c-1.8-4-8.1-8.6-8.4-8.8l-0.8,1.2c0.1,0.1,7.2,5.2,8.2,9c0.2,0.9,0,1.6-0.6,2.1c-1.8,1.5-2.9,1.8-3.6,1.7
		c-0.5-0.1-0.8-0.3-0.9-0.5l0-0.5h-0.2C69.2,70.2,69.1,70,69,70l-7.4-5.6l-0.9,1.1l7.2,5.4c0.1,0.1,0.2,0.3,0.3,0.6l0.1,0.4
		c0.2,0.9,0,1.6-0.6,2.2c-1.3,1.1-2.9,0.6-3.6,0.4c0,0,0-0.1,0-0.1l0,0c-0.1,0-0.1,0-0.1-0.1l-7.3-5.6l-0.9,1.1l7.2,5.6
		c0.1,0.5,0.2,1.6-1,2.9c-1.4,1.6-4.8-0.7-5.7-1.3l0.1-0.2l-0.8-0.3c0.3-1.7,0.7-5.5-0.7-7.1c-0.4-0.5-0.9-0.8-1.6-0.8
		c-0.4-0.1-1.6-0.4-2.8,0.3c-0.4-1.2-1.6-2-2.4-2.3c-0.9-0.3-2.6-0.4-4.2,0.7c-0.2-1.6-1.2-2.6-2-3c-0.8-0.4-2.4-0.8-4,0.2
		c0-0.6-0.2-1.2-0.5-1.6c-0.6-0.8-1.4-1-1.7-1.1c-0.6-0.2-3.3-1-5,2.6c-0.1,0.3-0.2,0.5-0.3,0.7l-6.7-4.3c2.2-5.7,6.7-19,7.7-22.2
		c0.1,0,0.3,0,0.4,0c0.1,0,0.1,0,0.2,0c1-0.2,6-1.8,9.2-2.9c-1,1.5-2.4,3.4-2.9,4c-0.6,0.8-2.6,3.3-1.8,5.2c0.5,1.1,1.7,1.8,3.6,2
		c5.7,0.6,9.4-3.3,10.5-5c1.2,0,3.2-0.1,4.4-0.7c1.5,2.1,7.1,8.9,13.2,9.4c0.7,0.7,6.2,5.7,7.2,7l0.2,0.2
		C76.9,59.2,78.9,61.6,76.8,65z M40.1,40c0.5-0.6,2-0.5,3.5,0.4c0.1,0.1,0.2,0.2,0.2,0.3c0.1,0.7-0.8,2.1-1.6,3.1
		c-1.1-1.3-2.7-1.3-3.9-1c0.2-0.6,0.7-1.4,1.5-2.4C39.8,40.3,39.9,40.2,40.1,40L40.1,40z M82.6,64c-2.4,1-3.6,1.1-4.2,1
		c1.9-3.8-0.4-6.8-1.4-8.1l-0.2-0.2c-0.9-1.1-4.4-4.5-6.3-6.2c0.9-0.1,1.7-0.4,2.5-0.8l-0.7-1.3c-1.1,0.6-2.2,0.8-3.4,0.8
		c-6.4-0.3-12.8-9.3-12.8-9.4l-0.6-0.7l-0.6,0.7c-0.3,0.4-2.4,0.7-4.4,0.7h-0.4l-0.2,0.4c-0.4,0.9-3.9,5.2-9.3,4.6
		c-1-0.1-2.2-0.4-2.5-1.1C38,44.1,38,44,38,43.8c0.7-0.3,2.6-0.8,3.7,1l0.3,0.5l0.4-0.4c0.2-0.3,2.4-2.7,2.2-4.2
		c-0.1-0.4-0.3-0.7-0.6-0.9c-1-0.6-2.1-0.9-3.1-0.9c1.1-1.5,2.4-3.4,2.8-4c0.5-0.2,0.8-0.3,0.8-0.3c0.2-0.1,5.3-1.6,6.7-2.1
		c1.3-0.5,4.8-1.6,7.8,0.2c5.6,3.2,9.7,4.7,12.2,4.3c0.7-0.1,1.7-0.3,2.5-0.6c0.9,1.9,5,11,5.8,15.7c0.8,4.6,1.8,9.2,3.2,11.7
		L82.6,64L82.6,64z M84.3,63.5c-1.6-2.5-2.7-8.6-3.2-11.6c-0.9-4.8-4.7-13.5-5.8-15.9c0.5-0.2,1.1-0.3,1.7-0.5
		c0.3,0.6,0.6,1.3,0.9,2c1.3,2.7,2.9,6.1,3.6,8.9c1.2,4.8,3.5,14,4.2,16.6L84.3,63.5z"/>
</g>
</svg>
