<?xml version="1.0" encoding="utf-8"?>
<!-- Generator: Adobe Illustrator 22.1.0, SVG Export Plug-In . SVG Version: 6.00 Build 0)  -->
<svg version="1.1" xmlns="http://www.w3.org/2000/svg" xmlns:xlink="http://www.w3.org/1999/xlink" x="0px" y="0px"
	 viewBox="0 0 100 125" style="enable-background:new 0 0 100 125;" xml:space="preserve">
<g id="Capa_2">
</g>
<g id="Capa_1">
	<path d="M94,79.8c0,0.6,0,1.1,0,1.5H52.7c-0.2-0.3-0.5-0.6-0.8-0.9c-2-2-3.9-3.9-5.8-5.8c-1.7-1.7-3.8-2.6-6-2.6s-4.3,0.9-6,2.6
		l-0.3,0.3c-0.4,0.4-0.8,0.8-1.2,1.2c-2.5-1.7-4.8-3.8-7.1-6.7c-0.5-0.6-0.9-1.1-1.2-1.6c0.2-0.2,0.5-0.5,0.7-0.7l0.6-0.7
		c0.2-0.2,0.4-0.5,0.6-0.7c7.8-2.4,13.7-5.3,13.8-5.3c0.8-1.4,1.2-3.3,1.5-4.7c-2.6-3.4-3.7-7.4-4.3-10.8c-0.9-0.1-2.2-1.4-3.5-6.2
		c-1.7-6.1-0.1-7.4,1.4-7.4c0.1,0,0.2,0,0.3,0c-1.2-3.4-1.2-6.8-0.4-9.9c0.9-3.7,2.8-6.6,5-8.9c1.4-1.5,3-2.8,4.6-3.9
		c1.4-1,2.9-1.8,4.5-2.3l0,0l0,0c1.3-0.4,2.7-0.7,4.1-0.8c0.6-0.1,1.2-0.1,1.8-0.1c3.6,0,6.4,1,8.5,2.3c3.6,2,5,4.7,5,4.7
		s9.1,0.7,5.1,20l0,0c1.2,0.4,2.1,2.1,0.7,7.2c-1.4,4.9-2.7,6.2-3.6,6.2c-0.3,0-0.5-0.1-0.7-0.2c-0.6,3.2-1.7,6.8-4,9.9
		c0.2,1.5,0.7,3.9,1.8,5.3c0,0,8.3,3.8,18.4,6.3C93,68.7,94.1,75.4,94,79.8z M45.1,92.4c1-1.1,2.2-2.2,3.3-3.3
		c1.6-1.6,1.6-3.6,0-5.2c-1.9-1.9-3.8-3.8-5.7-5.7c-1.6-1.6-3.5-1.6-5.1,0c-1.2,1.2-2.4,2.4-3.6,3.6c-0.3,0.3-0.6,0.4-1,0.2
		c-0.8-0.4-1.6-0.8-2.3-1.2c-3.5-2.2-6.4-5-8.9-8.1c-1.3-1.6-2.4-3.2-3.2-5.1c-0.2-0.4-0.1-0.6,0.2-0.9c1.2-1.2,2.4-2.3,3.5-3.5
		c1.6-1.6,1.6-3.6,0-5.2c-0.9-0.9-1.9-1.9-2.8-2.8c-1-1-1.9-1.9-2.9-2.9c-1.6-1.5-3.5-1.6-5.1,0c-1.2,1.2-2.4,2.4-3.6,3.6
		c-1.1,1.1-1.7,2.4-1.8,3.9c-0.2,2.5,0.4,4.9,1.3,7.2c1.8,4.8,4.5,9,7.7,12.9c4.4,5.2,9.7,9.4,15.8,12.4c2.8,1.3,5.7,2.4,8.8,2.6
		C41.8,94.6,43.6,94.1,45.1,92.4z"/>
</g>
</svg>
