<?xml version="1.0" encoding="utf-8"?>
<!-- Generator: Adobe Illustrator 22.1.0, SVG Export Plug-In . SVG Version: 6.00 Build 0)  -->
<svg version="1.1" id="Capa_1" xmlns="http://www.w3.org/2000/svg" xmlns:xlink="http://www.w3.org/1999/xlink" x="0px" y="0px"
	 viewBox="0 0 100 125" style="enable-background:new 0 0 100 125;" xml:space="preserve">
<path d="M46.8,21.5c4.9-7.7,13.6-8.6,20.3-7.9c5.2,0.5,6.1-1,1.3-3.1c-10-4.4-24.7-4.9-34.4,4.8L20.9,28.5c-0.7,0.7-0.7,2-0.3,2.9
	c0.5,1.2-0.4,2.9-1.7,4.2c-1.3,1.3-3,2.2-4.2,1.7c-1-0.4-2.2-0.4-2.9,0.3l-5.7,5.7c-1.5,1.5-1.5,3.9,0,5.3l7.5,7.5
	c1.5,1.5,3.9,1.5,5.3,0l5.7-5.7c0.7-0.7,0.7-2,0.3-2.9c-0.5-1.2,0.4-2.9,1.7-4.2c2-2,6.6-2.7,10.8,1.1l9.7-9.7
	C43.4,30,44.9,24.5,46.8,21.5z"/>
<path d="M93.6,78.4L51.1,38.7l-9.9,9.9L81,91c1.7,1.9,4.5,1.9,6.3,0.1l6.4-6.4C95.5,82.9,95.4,80.1,93.6,78.4z"/>
</svg>
