<svg xmlns="http://www.w3.org/2000/svg" xmlns:xlink="http://www.w3.org/1999/xlink" version="1.1" x="0px" y="0px" viewBox="0 0 100 125" enable-background="new 0 0 100 100" xml:space="preserve"><path d="M98.166,43.231l-10.09-17.397H59.834V42.5H48.418v-8.333h-6.625v-8.333H28.542h-2H13.291v8.333H6.667V42.5H1.834v21.334  h7.422c-0.065,0.436-0.11,0.878-0.11,1.332c0,4.963,4.038,9,9,9s9-4.037,9-9c0-0.454-0.045-0.896-0.11-1.332h33.797h1h8.275  C70.045,64.27,70,64.712,70,65.166c0,4.963,4.037,9,9,9s9-4.037,9-9c0-0.454-0.045-0.896-0.109-1.332h10.275V43.231z M61.834,27.834  h25.09l3.673,6.333H77.166v2h14.591L95.43,42.5H61.834V27.834z M46.418,36.167V42.5H35.167v-6.333h6.626H46.418z M21.917,36.167  h4.625h2h4.625V42.5h-11.25V36.167z M28.542,27.834h11.251v6.333h-4.626h-2h-4.625V27.834z M15.291,27.834h11.251v6.333h-4.625h-2  h-4.626V27.834z M8.667,36.167h4.624h6.626V42.5H8.667V36.167z M18.146,72.166c-3.86,0-7-3.141-7-7s3.14-7,7-7s7,3.141,7,7  S22.006,72.166,18.146,72.166z M59.834,61.834H26.5c-1.328-3.316-4.568-5.668-8.353-5.668s-7.025,2.352-8.353,5.668H3.834V44.5  h2.833h13.25h2h11.25h2h13.251h11.416V61.834z M79,72.166c-3.859,0-7-3.141-7-7s3.141-7,7-7s7,3.141,7,7S82.859,72.166,79,72.166z   M87.354,61.834c-1.328-3.316-4.568-5.668-8.354-5.668s-7.025,2.352-8.354,5.668h-8.813V44.5h34.332v17.334H87.354z"/><text x="0" y="115" fill="#000000" font-size="5px" font-weight="bold" font-family="'Helvetica Neue', Helvetica, Arial-Unicode, Arial, Sans-serif">Created by Srinivas Agra</text><text x="0" y="120" fill="#000000" font-size="5px" font-weight="bold" font-family="'Helvetica Neue', Helvetica, Arial-Unicode, Arial, Sans-serif">from the Noun Project</text></svg>