<svg xmlns="http://www.w3.org/2000/svg" xmlns:xlink="http://www.w3.org/1999/xlink" version="1.1" x="0px" y="0px" viewBox="0 0 100 125" style="enable-background:new 0 0 100 100;" xml:space="preserve"><path d="M75.28,15.451l-2.542-0.353c-2.097-0.297-4.017,0.807-4.899,2.607l-3.052-0.427c-0.083-0.77-0.362-1.503-0.835-2.134  c-0.696-0.928-1.716-1.521-2.858-1.689l-13.62-1.92c-1.689-0.232-3.284,0.557-4.184,1.893c-1.466,0.093-4.917,0.408-7.617,1.29  c-3.062,1.002-8.526,3.999-8.749,4.129c-0.39,0.204-0.649,0.585-0.714,1.021l-0.315,2.282c-0.065,0.436,0.083,0.881,0.399,1.188  c0.315,0.315,0.761,0.455,1.197,0.38c1.837-0.306,6.903-1.085,8.424-1.085c0.742,0.009,1.828,0.26,2.913,0.594  c1.076,0.325,2.162,0.724,2.913,1.021c0.148,0.473,0.353,0.928,0.659,1.327c0.696,0.928,1.716,1.522,2.858,1.689l2.412,0.334  L44.152,52.59c-1.707,0.241-3.145,1.484-3.563,3.229h-3.201c-1.809,0-3.489,0.807-4.611,2.227c-0.019,0.009-0.019,0.028-0.037,0.046  l-5.372,6.689c-0.538,0.752-0.974,1.429-1.336,2.069c-0.742-0.399-1.559-0.622-2.422-0.622H13.442c-2.811,0-5.103,2.292-5.103,5.103  v16.561c0,2.811,2.292,5.103,5.103,5.103h10.169c1.42,0,2.718-0.585,3.656-1.559c1.123,0.826,2.487,1.29,3.915,1.29h5.632  c0.919,0.761,2.032,1.28,3.229,1.447l5.409,0.77C45.739,94.981,46.026,95,46.314,95c1.902,0,3.72-0.835,4.945-2.273h1.819  c1.475,0,2.858-0.51,3.887-1.41c1.104-0.937,1.735-2.255,1.735-3.609c0-0.881-0.26-1.716-0.714-2.431  c0.891-0.223,1.726-0.612,2.412-1.197c1.113-0.956,1.726-2.236,1.726-3.581c0-1.086-0.399-2.078-1.058-2.895  c0.418-0.223,0.807-0.464,1.169-0.779c1.086-0.983,1.689-2.301,1.689-3.711c0-1.503-0.696-2.848-1.8-3.795  c0.037-0.028,0.074-0.046,0.102-0.074c1.095-0.974,1.698-2.292,1.698-3.711c0-2.811-2.449-5.103-5.493-5.159  c-0.046-0.009-0.084-0.009-0.13-0.009h-2.997l0.195-2.282c0.167-1.865-0.909-3.544-2.533-4.259l3.516-24.986l2.403,0.343  c0.204,0.028,0.399,0.037,0.594,0.037c1.763,0,3.34-1.095,3.999-2.7l3.062,0.427c0.343,1.967,1.893,3.563,3.99,3.869l2.542,0.362  c0.065,0,0.13,0.009,0.195,0.009c0.297,0,0.594-0.093,0.835-0.278c0.297-0.223,0.492-0.557,0.547-0.919l1.818-12.961  C76.569,16.267,76.041,15.562,75.28,15.451z M41.731,21.268c-1.642-0.603-4.129-1.401-5.864-1.42c-1.234,0-4.129,0.399-6.281,0.724  c1.8-0.946,4.992-2.57,6.949-3.201c1.893-0.622,4.305-0.937,5.901-1.086L41.731,21.268z M42.603,65.607  c-0.037-0.065-0.083-0.13-0.139-0.195c-0.009-0.009-0.009-0.019-0.019-0.028c-0.056-0.056-0.121-0.121-0.185-0.167  c0-0.009-0.009-0.009-0.009-0.018c-0.065-0.046-0.139-0.093-0.213-0.13c-0.009,0-0.009-0.009-0.009-0.009  c-0.074-0.037-0.158-0.065-0.241-0.093h-0.009c-0.084-0.028-0.158-0.037-0.241-0.046c-0.009,0-0.019,0-0.037,0  c-0.028-0.009-0.065-0.018-0.102-0.018c-0.018,0-0.046,0.018-0.065,0.018c-0.13,0-0.26,0.028-0.38,0.065  c-0.037,0.019-0.074,0.037-0.111,0.056c-0.037,0.009-0.084,0.028-0.121,0.046c-0.074,0.037-0.139,0.093-0.204,0.148  c-0.019,0.009-0.028,0.019-0.046,0.037c-0.102,0.093-0.186,0.195-0.26,0.315c-0.009,0.019-0.028,0.037-0.037,0.056  c-0.065,0.13-0.111,0.26-0.139,0.408c0,0.009-0.009,0.019-0.009,0.037c-0.51,2.876-1.419,5.298-2.718,7.172  c-0.009,0.009-0.009,0.009-0.009,0.009c-1.364,1.967-3.145,3.386-5.446,4.333c-0.714,0.297-1.048,1.113-0.761,1.818  c0.223,0.538,0.742,0.863,1.29,0.863c0.176,0,0.353-0.037,0.529-0.102c1.197-0.501,2.292-1.113,3.284-1.846l-1.661,8.536  c-0.139,1.058-0.019,2.106,0.325,3.071h-3.674c-0.965,0-1.865-0.371-2.579-1.011c0.074-0.334,0.111-0.687,0.111-1.039V71.332  c0-0.854-0.223-1.689-0.631-2.431c0.362-0.733,0.854-1.531,1.503-2.431l5.363-6.68l-0.009-0.009c0.009,0,0.009,0,0.009-0.009  c0.594-0.742,1.484-1.169,2.44-1.169h4.342c0.009,0,0.009,0,0.018,0h1.689c0.956,0,1.8,0.464,2.264,1.243l3.173,7.673  c0.028,0.056,0.046,0.102,0.074,0.148c0.074,0.13,0.139,0.26,0.204,0.39c0.195,0.436,0.278,0.798,0.241,1.048  c-0.056,0.334-0.418,0.696-1.095,1.076c-0.353,0.195-0.752,0.315-1.169,0.334c-0.065,0.009-0.148,0.009-0.204,0.019  c-0.965,0-1.856-0.501-2.301-1.299c0,0-0.445-0.798-0.928-1.67c-0.529-0.937-1.086-1.939-1.086-1.939S42.603,65.617,42.603,65.607z   M55.147,89.211c-0.529,0.464-1.28,0.733-2.069,0.733h-2.524h-4.555c-1.54,0-2.848-1.021-2.848-2.236  c0-0.742,0.473-1.262,0.761-1.503c0.547-0.473,1.29-0.733,2.088-0.733h7.079c1.54,0,2.839,1.021,2.839,2.236  C55.917,88.255,55.648,88.784,55.147,89.211z M58.589,81.964c-0.538,0.464-1.308,0.724-2.088,0.724h-3.424h-3.656  c-1.54,0-2.848-1.002-2.848-2.19c0-0.538,0.278-1.076,0.733-1.466c0.575-0.473,1.327-0.733,2.115-0.733h7.079  c1.54,0,2.839,1.002,2.839,2.199C59.34,81.213,58.867,81.732,58.589,81.964z M60.379,74.746c-0.557,0.492-1.29,0.761-2.078,0.761  h-7.079c-1.54,0-2.839-1.095-2.839-2.394c0.455-0.121,0.881-0.288,1.28-0.51c0.983-0.547,1.661-1.178,2.069-1.902h6.569  c1.54,0,2.839,1.104,2.839,2.412C61.14,73.726,60.862,74.31,60.379,74.746z M58.301,63.149c1.568,0,2.839,1.067,2.839,2.384  c0,0.612-0.269,1.188-0.77,1.633c-0.538,0.482-1.28,0.752-2.069,0.752h-6.263c-0.065-0.241-0.148-0.492-0.25-0.742  c-0.102-0.26-0.223-0.52-0.371-0.789l-1.262-3.052c0.343-0.121,0.705-0.186,1.067-0.186H58.301z M50.229,53.268l-3.303-0.464  l3.498-24.819l3.303,0.464L50.229,53.268z M62.031,17.965l-0.046,0.325h-0.009l-0.9,6.476c0,0.009,0,0.009,0,0.009L61.029,25.1  c-0.13,0.844-0.909,1.438-1.754,1.318l-3.776-0.52c-0.009,0-0.009-0.009-0.009-0.009l-6.058-0.863l-3.785-0.529  c-0.408-0.056-0.77-0.269-1.021-0.594c-0.102-0.139-0.176-0.288-0.232-0.445c-0.074-0.223-0.102-0.464-0.065-0.705  c0.009,0,0.009,0,0.009-0.009l1.002-7.144V15.59c0.13-0.835,0.909-1.41,1.744-1.29l13.629,1.92c0.408,0.056,0.77,0.269,1.011,0.594  c0.158,0.204,0.26,0.445,0.306,0.696C62.049,17.659,62.049,17.807,62.031,17.965z M66.679,24.163l-2.663-0.38l0.529-3.73l2.663,0.38  L66.679,24.163z M72.079,28.217l-1.16-0.158c-1.039-0.158-1.791-1.123-1.67-2.162l0.9-6.42c0.176-1.048,1.16-1.772,2.199-1.624  l1.169,0.158L72.079,28.217z"/><path d="M90.458,24.049l-11.91-1.654l0.357-2.605c0.052-0.381-0.055-0.747-0.27-1.03c-0.215-0.284-0.539-0.485-0.92-0.537  c-0.762-0.104-1.463,0.428-1.567,1.19l-1.091,7.967c-0.104,0.762,0.428,1.463,1.19,1.567c0.762,0.104,1.463-0.428,1.567-1.19  l0.357-2.604l11.91,1.654c0.762,0.104,1.463-0.428,1.567-1.19c0.052-0.381-0.055-0.747-0.27-1.03  C91.162,24.303,90.839,24.102,90.458,24.049z"/><path d="M78.315,34.43c-0.107-0.501-0.597-0.817-1.102-0.712c-0.501,0.107-0.82,0.601-0.712,1.102l1.315,6.124  c0.093,0.435,0.478,0.733,0.906,0.733c0.064,0,0.13-0.007,0.196-0.021c0.501-0.107,0.82-0.601,0.712-1.102L78.315,34.43z"/><path d="M72.144,33.801c-0.49-0.15-1.008,0.129-1.157,0.62l-1.813,5.996c-0.148,0.491,0.129,1.008,0.62,1.157  c0.053,0.016,0.106,0.027,0.159,0.033c0.439,0.053,0.865-0.215,0.998-0.653l1.813-5.996C72.912,34.468,72.635,33.95,72.144,33.801z"/><path d="M80.58,13.968c0.153,0.096,0.323,0.142,0.492,0.142c0.309,0,0.611-0.154,0.787-0.435l3.328-5.307  c0.272-0.434,0.141-1.007-0.293-1.279c-0.433-0.272-1.006-0.14-1.279,0.293l-3.328,5.307C80.015,13.124,80.146,13.696,80.58,13.968z  "/><path d="M73.862,13.092c0.029,0,0.058-0.001,0.088-0.004c0.51-0.048,0.885-0.501,0.837-1.011l-0.588-6.236  c-0.048-0.511-0.502-0.884-1.011-0.837c-0.51,0.048-0.885,0.501-0.837,1.011l0.588,6.236C72.985,12.732,73.389,13.092,73.862,13.092  z"/><text x="0" y="115" fill="#000000" font-size="5px" font-weight="bold" font-family="'Helvetica Neue', Helvetica, Arial-Unicode, Arial, Sans-serif">Created by Maxim Kulikov</text><text x="0" y="120" fill="#000000" font-size="5px" font-weight="bold" font-family="'Helvetica Neue', Helvetica, Arial-Unicode, Arial, Sans-serif">from the Noun Project</text></svg>