<svg xmlns="http://www.w3.org/2000/svg" xmlns:xlink="http://www.w3.org/1999/xlink" version="1.1" x="0px" y="0px" viewBox="0 0 100 125" enable-background="new 0 0 100 100" xml:space="preserve"><path d="M46.835,21.495c4.914-7.686,13.612-8.58,20.295-7.887c5.188,0.54,6.106-0.986,1.321-3.065  C58.428,6.188,43.783,5.617,34.02,15.378L20.866,28.531c-0.737,0.739-0.722,1.952-0.3,2.907c0.549,1.234-0.42,2.942-1.691,4.215  c-1.271,1.268-2.977,2.238-4.213,1.689c-0.957-0.422-2.168-0.438-2.905,0.301l-5.655,5.651c-1.469,1.471-1.469,3.874,0,5.343  l7.537,7.536c1.469,1.472,3.875,1.472,5.343,0l5.654-5.651c0.737-0.738,0.723-1.952,0.301-2.905  c-0.549-1.239,0.42-2.942,1.689-4.214c2.018-2.02,6.596-2.675,10.765,1.117l9.729-9.727C43.4,30.049,44.942,24.47,46.835,21.495z"/><path d="M93.577,78.41L51.088,38.69l-9.857,9.856l39.725,42.483c1.705,1.852,4.53,1.906,6.31,0.128l6.438-6.441  C95.48,82.939,95.425,80.116,93.577,78.41z"/><text x="0" y="115" fill="#000000" font-size="5px" font-weight="bold" font-family="'Helvetica Neue', Helvetica, Arial-Unicode, Arial, Sans-serif">Created by David</text><text x="0" y="120" fill="#000000" font-size="5px" font-weight="bold" font-family="'Helvetica Neue', Helvetica, Arial-Unicode, Arial, Sans-serif">from the Noun Project</text></svg>