<svg xmlns="http://www.w3.org/2000/svg" xmlns:xlink="http://www.w3.org/1999/xlink" version="1.1" x="0px" y="0px" viewBox="0 0 70 87.5" style="enable-background:new 0 0 70 70;" xml:space="preserve"><g><g><g><path d="M53.8097191,34.2935829l-0.9179688-0.3974609c1.1933594-2.7514648,1.7988281-5.6757813,1.7988281-8.690918     c0-3.84375-1.0107422-7.609375-2.9228516-10.8989258l-0.0673828-0.1259766     C47.8282738,7.5787396,40.964016,3.557255,33.3106956,3.4151652c-0.1552734-0.0107422-0.296875-0.0117188-0.4101563-0.0102539     C32.7794456,3.4019816,32.64468,3.404423,32.5167503,3.4137003c-7.5742188,0.1416016-14.6142578,4.2661133-18.4316406,10.7739258     l-0.0625,0.1176758c-1.9111328,3.3012695-2.921875,7.0703125-2.921875,10.8999023     c0,2.6660156,0.4765625,5.2602539,1.4160156,7.7104492l-0.9335938,0.3583984     c-0.9833984-2.5649414-1.4824219-5.2797852-1.4824219-8.0688477c0-3.9599609,1.0332031-7.8588867,2.9892578-11.2836914V13.920536     l0.0673828-0.1259766C17.1339378,6.9229779,24.5343285,2.5626261,32.4708519,2.4151652     c0.2587891-0.0200195,0.59375-0.0195313,0.8857422,0.0014648c8.0234375,0.1479492,15.2402344,4.4023438,19.2763672,11.3779297     l0.0673828,0.1264648c1.9570313,3.4140625,2.9902344,7.3095703,2.9902344,11.2739258     C55.6905785,28.358036,55.057766,31.4161415,53.8097191,34.2935829z"/></g><g><path d="M51.8438988,37.8389931l-0.7070313-0.7070313l0.8603516,0.5     C51.9679222,37.6827431,51.9230003,37.7598915,51.8438988,37.8389931z"/></g><g><path d="M23.1466331,39.7442665c-1.8740234-4.0615234-2.90625-9.2255859-2.90625-14.5390625     c0-3.9492188,0.5673828-7.8276367,1.640625-11.2314453l0.0224609-0.0786133     c2.171875-6.9116206,6.1142578-11.2026367,10.5458984-11.4790039c0.3037109-0.0219727,0.6152344-0.0205078,0.9072266,0.0004883     c4.4267578,0.2758789,8.3691406,4.5668945,10.5400391,11.4785156l0.0234375,0.0825195     c1.0732422,3.4052734,1.640625,7.2817383,1.640625,11.2172852c0,4.5444336-0.7333984,8.9199219-2.1210938,12.6635742     l-0.9375-0.3476563c1.3466797-3.6337891,2.0585938-7.8886719,2.0585938-12.3056641     c0-3.8730469-0.5595703-7.6723633-1.6171875-10.9990234l-0.0234375-0.0839844     c-2.0458984-6.4584956-5.6425781-10.4594727-9.6308594-10.7080078c-0.1318359-0.0097656-0.2636719-0.0107422-0.3886719-0.0092773     C32.7794456,3.4019816,32.64468,3.404423,32.5167503,3.4137003c-3.9921875,0.2490234-7.5898438,4.25-9.6367188,10.7084961     l-0.0234375,0.0839844c-1.0576172,3.3242188-1.6162109,7.1240234-1.6162109,10.9887695     c0,5.1821289,0.9990234,10.1967773,2.8144531,14.1313477L23.1466331,39.7442665z"/></g><g><rect x="13.5948763" y="13.5528603" width="38.6054688" height="1"/></g><g><rect x="10.606595" y="24.6988564" width="44.5839844" height="1"/></g><g><rect x="32.4005394" y="2.9049113" width="1" height="34.4301758"/></g></g><g><g><path d="M11.1700716,55.4288368c-0.078125,0-0.15625-0.0185547-0.2265625-0.0546875l-8.1171875-4.1298828     c-0.2460938-0.125-0.3447266-0.4257813-0.21875-0.671875l9.6123047-18.9013672     c0.1230469-0.2446289,0.4199219-0.3417969,0.6660156-0.222168l8.0634756,3.9711914     c0.1201172,0.0585938,0.2109375,0.1630859,0.2529297,0.2890625c0.0429688,0.1259766,0.0332031,0.2646484-0.0263672,0.3837891     l-9.5585928,19.0605469c-0.0595703,0.1181641-0.1650391,0.2089844-0.2910156,0.25     C11.2755404,55.4210243,11.222806,55.4288368,11.1700716,55.4288368z M3.7247589,50.580204l7.2236328,3.6748047     l9.1074209-18.1611328l-7.1689444-3.5297852L3.7247589,50.580204z"/></g><g><path d="M58.48843,55.4464149c-0.0673828,0-0.1347656-0.0136719-0.1982422-0.0410156     c-0.1220703-0.0527344-0.21875-0.1523438-0.2675781-0.2763672l-7.7910156-19.8349609     c-0.0478516-0.1240234-0.0458984-0.2626953,0.0078125-0.3842773c0.0537109-0.1220703,0.1542969-0.2172852,0.2783203-0.2651367     l8.390625-3.2358398c0.2548828-0.0986328,0.5429688,0.0263672,0.6435547,0.2807617l7.8593788,19.6816406     c0.1025391,0.2568359-0.0214844,0.546875-0.2783203,0.6494141l-8.4589882,3.3896484     C58.6144066,55.4346962,58.5519066,55.4464149,58.48843,55.4464149z M51.3468285,35.3966103L58.76968,54.2950478     l7.5283241-3.0166016l-7.4912148-18.7587891L51.3468285,35.3966103z"/></g><g><path d="M9.18472,49.4005165c-0.0595703,0-0.1298828-0.0107422-0.1894531-0.0400391     c-0.0605469-0.0205078-0.1103516-0.0605469-0.1601563-0.1103516C8.7452669,49.1602821,8.68472,49.0401649,8.68472,48.9005165     c0-0.0605469,0.0205078-0.1298828,0.0400391-0.1904297c0.0302734-0.0595703,0.0605469-0.1201172,0.1103516-0.1601563     c0.0498047-0.0498047,0.0996094-0.0800781,0.1601563-0.109375c0.1201172-0.0507813,0.2597656-0.0507813,0.3798828,0     c0.0595703,0.0292969,0.1201172,0.0595703,0.1699219,0.109375c0.0400391,0.0400391,0.0800781,0.1005859,0.0996094,0.1601563     C9.6749544,48.7706337,9.68472,48.8399696,9.68472,48.9005165c0,0.1298828-0.0498047,0.2597656-0.1396484,0.3496094     c-0.0498047,0.0498047-0.1103516,0.0898438-0.1699219,0.1103516C9.3146029,49.3897743,9.2550325,49.4005165,9.18472,49.4005165z"/></g><g><path d="M61.3146019,49.4005165c-0.1396484,0-0.2597656-0.0507813-0.3496094-0.1503906     c-0.0498047-0.0400391-0.0898438-0.0996094-0.1103516-0.1601563c-0.0292969-0.0595703-0.0400391-0.1201172-0.0400391-0.1894531     c0-0.0605469,0.0107422-0.1298828,0.0400391-0.1904297c0.0205078-0.0595703,0.0605469-0.1201172,0.1103516-0.1601563     c0.1796875-0.1894531,0.5195313-0.1894531,0.7001953,0c0.0498047,0.0400391,0.0800781,0.1005859,0.109375,0.1601563     c0.0302734,0.0605469,0.0400391,0.1298828,0.0400391,0.1904297c0,0.1298828-0.0498047,0.2597656-0.1494141,0.3496094     c-0.0498047,0.0498047-0.1005859,0.0898438-0.1601563,0.1103516     C61.4444847,49.3897743,61.3849144,49.4005165,61.3146019,49.4005165z"/></g><g><path d="M22.9181175,40.4190712c-0.0751953,0-0.1513672-0.0166016-0.2207031-0.0517578l-3.3857422-1.6650391     c-0.2480469-0.1210938-0.3496094-0.4208984-0.2275391-0.6689453c0.1220703-0.2470703,0.421875-0.3486328,0.6689453-0.2275391     l3.1484375,1.5478516l5.0332031-2.8427734c1.0195313-0.5742188,2.1533203-0.8085938,3.2060547-0.6484375     c0.7890625,0.1191406,1.4433594,0.4169922,1.9443359,0.8847656c0.2021484,0.1884766,0.2128906,0.5048828,0.0244141,0.7060547     c-0.1884766,0.203125-0.5048828,0.2128906-0.7060547,0.0244141c-0.3515625-0.3271484-0.8261719-0.5380859-1.4111328-0.6269531     c-0.8251953-0.1230469-1.7382813,0.0634766-2.5654297,0.53125l-5.2626953,2.9726563     C23.0880394,40.3975868,23.0030785,40.4190712,22.9181175,40.4190712z"/></g><g><path d="M16.6710472,55.9630165c-0.0908203,0-0.1816406-0.0244141-0.2646484-0.0751953l-4.3955069-2.7382813     c-0.234375-0.1464844-0.3056641-0.4550781-0.1601563-0.6894531c0.1474609-0.2333984,0.4550781-0.3027344,0.6894531-0.1601563     l4.3955069,2.7382813c0.234375,0.1464844,0.3056641,0.4550781,0.1601563,0.6894531     C17.0011253,55.8790321,16.8370628,55.9630165,16.6710472,55.9630165z"/></g><g><path d="M18.9181175,59.4874306c-0.4931641,0-0.9892578-0.1484375-1.4179688-0.4570313l-0.7011719-0.5068359     c-0.5234375-0.3779297-0.86621-0.9365234-0.9658194-1.5712891c-0.0996094-0.6337891,0.0546875-1.2675781,0.4345694-1.7851563     c0.7841797-1.0673828,2.2978516-1.3056641,3.3740234-0.5263672l0.7011719,0.5058594     c0.5234375,0.3779297,0.8662109,0.9365234,0.9658203,1.5712891c0.0996094,0.6337891-0.0546875,1.2675781-0.4345703,1.7851563     C20.401516,59.1466103,19.6642113,59.4874306,18.9181175,59.4874306z M18.2208519,55.1817665     c-0.4375,0-0.8701172,0.2001953-1.1464844,0.5771484c-0.2216797,0.3017578-0.3115234,0.6699219-0.2539063,1.0380859     c0.0585938,0.3701172,0.2587891,0.6953125,0.5644531,0.9160156l0,0l0.7011719,0.5068359     c0.6337891,0.4560547,1.5224609,0.3173828,1.9814453-0.3085938c0.2216797-0.3017578,0.3115234-0.6699219,0.2539063-1.0380859     c-0.0585938-0.3701172-0.2587891-0.6953125-0.5644531-0.9160156l-0.7011719-0.5058594     C18.8038597,55.2696571,18.510891,55.1817665,18.2208519,55.1817665z"/></g><g><path d="M21.9737816,62.423954c-0.4785156,0-0.9550781-0.1289063-1.3779297-0.3984375     c-0.5761719-0.3681641-0.9755859-0.9492188-1.1240234-1.6357422c-0.1611328-0.7421875-0.0068359-1.5478516,0.4238281-2.2099609     l0.5654297-0.8710938l0,0c0.8564453-1.3193359,2.5664063-1.7509766,3.8095703-0.9550781     c0.5751953,0.3671875,0.9746094,0.9482422,1.1230469,1.6347656c0.1611328,0.7421875,0.0068359,1.5478516-0.4228516,2.2099609     l-0.5654297,0.8701172C23.8399925,61.9405556,22.9034691,62.423954,21.9737816,62.423954z M21.2989769,57.8536415     l-0.5654297,0.8710938c-0.2851563,0.4394531-0.3886719,0.9697266-0.2841797,1.4541016     c0.0917969,0.4238281,0.3349609,0.7802734,0.6845703,1.0039063c0.7822266,0.4980469,1.8730469,0.2041016,2.4335938-0.6591797     l0.5654297-0.8701172c0.2851563-0.4394531,0.3886719-0.9697266,0.2841797-1.453125     c-0.0917969-0.4248047-0.3349609-0.78125-0.6855469-1.0048828     C22.9503441,56.6973915,21.8595238,56.9923134,21.2989769,57.8536415L21.2989769,57.8536415z"/></g><g><path d="M25.1837425,65.1983719c-0.5351563,0-1.0673828-0.1621094-1.5175781-0.5009766     c-0.5351563-0.4013672-0.8808594-0.995121-0.9736328-1.6718788c-0.1005859-0.7236328,0.0966797-1.4511719,0.5527344-2.0488281     l1.8974609-2.4814453l0,0c0.9091797-1.1884766,2.5761719-1.4580078,3.7167969-0.6015625     c0.5341797,0.4013672,0.8798828,0.9951172,0.9736328,1.6708984c0.0996094,0.7246094-0.0966797,1.4521484-0.5527344,2.0498047     l-1.8984375,2.4814491C26.83218,64.8155594,26.0050316,65.1983719,25.1837425,65.1983719z M25.9376488,59.1026649     l-1.8974609,2.4814453c-0.2939453,0.3837891-0.4208984,0.8476563-0.3574219,1.3056641     c0.0566406,0.4091797,0.2636719,0.7675781,0.5849609,1.0087891c0.703125,0.5273476,1.7441406,0.3447304,2.3193359-0.4101563     l1.8984375-2.4814453c0.2929688-0.3837891,0.4199219-0.8476563,0.3574219-1.3056641     c-0.0566406-0.4101563-0.2646484-0.7675781-0.5849609-1.0087891     C27.5567894,58.1671181,26.5147972,58.3487587,25.9376488,59.1026649L25.9376488,59.1026649z"/></g><g><path d="M29.1427269,67.0401688c-0.5576172,0-1.1386719-0.1835938-1.6386719-0.5605469     c-0.5810547-0.4355469-0.9667969-1.0722656-1.0595703-1.7460938c-0.0800781-0.578125,0.0625-1.1396523,0.4013672-1.5810585     l1.5048828-1.9707031c0,0,0,0,0.0009766,0c0.7568359-0.9873047,2.28125-1.1064453,3.3974609-0.2666016     c0.5800781,0.4355469,0.9667969,1.0722656,1.0595703,1.7451172c0.0800781,0.578125-0.0625,1.1396484-0.4003906,1.5820351     l-1.5058594,1.9697266C30.4845238,66.7589188,29.83218,67.0401688,29.1427269,67.0401688z M29.14468,61.7891884     l-1.5048828,1.9707031c-0.2246094,0.2929726-0.2353516,0.6171913-0.2050781,0.8378944     c0.0566406,0.4101563,0.3007813,0.8056641,0.6699219,1.0830078c0.6816406,0.5126953,1.5791016,0.4785156,2.0029297-0.0761719     l1.5058594-1.9697304c0.2246094-0.2929688,0.2353516-0.6171875,0.2050781-0.8378906     c-0.0566406-0.4111328-0.3007813-0.8056641-0.6699219-1.0830078C30.4659691,61.2022743,29.5694847,61.236454,29.14468,61.7891884     L29.14468,61.7891884z"/></g><g><path d="M36.9503441,67.5997391c-2.6894531,0-5.4892578-2.7539063-5.6171875-2.8808594     c-0.1962891-0.1943359-0.1962891-0.5107422-0.0019531-0.7070313c0.1953125-0.1953163,0.5117188-0.1953163,0.7070313-0.0019531     c0.0302734,0.0292969,3.0625,3.0058594,5.4140625,2.5429688c0.9082031-0.1777344,1.5996094-0.8476563,2.1123047-2.0488281     c0.1083984-0.2548828,0.4013672-0.3710938,0.65625-0.2636719c0.2539063,0.1083984,0.3720703,0.4023438,0.2636719,0.65625     c-0.6445313,1.5087891-1.6005859,2.3964844-2.8427734,2.6376953     C37.4132347,67.5792313,37.1817894,67.5997391,36.9503441,67.5997391z"/></g><g><path d="M41.5216331,65.2862625c-3.2763672,0-5.9853516-4.6152382-6.0996094-4.8115273     c-0.1386719-0.2392578-0.0566406-0.5449219,0.1816406-0.6835938c0.2373047-0.1386719,0.5439453-0.0576172,0.6835938,0.1816406     c0.0253906,0.0429688,2.5341797,4.3134804,5.2333984,4.3134804c0.0039063,0,0.0068359,0,0.0107422,0     c1.1894531-0.0048828,2.2910156-0.8828163,3.2744141-2.6084023c0.1376953-0.2412109,0.4404297-0.3222656,0.6816406-0.1875     c0.2402344,0.1367188,0.3242188,0.4423828,0.1875,0.6816406c-1.1738281,2.0605507-2.5673828,3.1084023-4.1416016,3.1142616     C41.5294456,65.2862625,41.5255394,65.2862625,41.5216331,65.2862625z"/></g><g><path d="M46.745266,62.5606728c-3.6904297,0-7.3798828-5.8955078-7.5371094-6.1513672     c-0.1455078-0.234375-0.0732422-0.5429688,0.1621094-0.6875c0.234375-0.1455078,0.5410156-0.0742188,0.6875,0.1621094     c1.0117188,1.6328125,4.2548828,5.828125,6.8388672,5.671875c1.1572266-0.0732422,2.1533203-1.0058594,2.9609375-2.7744141     c0.1152344-0.2519531,0.4150391-0.3583984,0.6630859-0.2470703c0.2509766,0.1152344,0.3613281,0.4121094,0.2470703,0.6630859     c-0.9736328,2.1298828-2.2548828,3.2587891-3.8095703,3.3564453     C46.8878441,62.5587196,46.816555,62.5606728,46.745266,62.5606728z"/></g><g><path d="M51.6495628,59.4639931c-0.0380859,0-0.0771484-0.0009766-0.1152344-0.0019531     c-3.5195313-0.1347656-8.2646484-6.7675781-8.4648438-7.0498047c-0.1591797-0.2246094-0.1064453-0.5371094,0.1191406-0.6972656     c0.2246094-0.1572266,0.5371094-0.1074219,0.6972656,0.1191406c1.2851563,1.8115234,5.171875,6.5332031,7.6865234,6.6279297     c0.5302734,0.0253906,0.9814453-0.1826172,1.3466797-0.6230469c0.7226563-0.8701172,1.0537109-1.6826172,0.984375-2.4160156     c-0.0732422-0.7832031-0.6025391-1.3710938-1.0332031-1.7265625c-1.1357422-0.9384766-2.2080078-1.9238281-3.1884766-2.9287109     c-1.9394531-1.9892578-4.1884766-3.6210938-6.6835938-4.8486328l-6.0712891-2.9853516     c-0.5488281-0.2695313-1.1855469-0.2822266-1.7441406-0.03125c-0.5009766,0.2226563-0.8828125,0.6230469-1.0751953,1.1269531     c-0.4150391,1.0917969-1.1894531,2.5058594-2.5185547,3.0449219c-0.8349609,0.3378906-1.7578125,0.2783203-2.7412109-0.1816406     c-0.0292969-0.0136719-2.4482422-1.2255859-1.015625-4.9277344c0.7314453-1.8925781,2.1767578-3.546875,4.0683594-4.6582031     c2.6582031-1.5634766,5.8623047-1.8994141,8.7890625-0.9140625l5.7587891,1.9355469l5.0400391-1.3554688     c0.2636719-0.0712891,0.5410156,0.0859375,0.6123047,0.3525391c0.0722656,0.2666016-0.0859375,0.5410156-0.3525391,0.6123047     l-5.1855469,1.3955078c-0.0957031,0.0263672-0.1953125,0.0234375-0.2890625-0.0087891l-5.9023438-1.984375     c-2.6513672-0.8916016-5.5537109-0.5869141-7.9648438,0.828125c-1.6972656,0.9980469-2.9912109,2.4746094-3.6416016,4.1582031     c-1.0869141,2.8066406,0.4501953,3.6318359,0.5166016,3.6650391c0.7197266,0.3369141,1.3564453,0.3896484,1.9326172,0.1552734     c1.046875-0.4238281,1.6767578-1.7314453,1.9599609-2.4726563c0.2871094-0.7548828,0.8554688-1.3535156,1.6015625-1.6855469     c0.8320313-0.3720703,1.7763672-0.3525391,2.5927734,0.0488281l6.0712891,2.9853516     c2.5976563,1.2773438,4.9384766,2.9755859,6.9589844,5.0478516c0.9541016,0.9785156,2.0009766,1.9394531,3.1083984,2.8544922     c0.8271484,0.6826172,1.3085938,1.5136719,1.3925781,2.4042969c0.0947266,1.0078125-0.3125,2.0673828-1.2109375,3.1484375     C53.14468,59.1329384,52.4591331,59.4639931,51.6495628,59.4639931z"/></g><g><path d="M53.7872581,54.4200478c-0.2148438,0-0.4140625-0.1396484-0.4785156-0.3554688     c-0.0800781-0.2646484,0.0703125-0.5439453,0.3339844-0.6230469l3.84375-1.1572266     c0.2695313-0.0810547,0.5439453,0.0703125,0.6230469,0.3339844c0.0800781,0.2646484-0.0703125,0.5439453-0.3339844,0.6230469     l-3.84375,1.1572266C53.8829613,54.4132118,53.8351097,54.4200478,53.7872581,54.4200478z"/></g></g></g><text x="0" y="85" fill="#000000" font-size="5px" font-weight="bold" font-family="'Helvetica Neue', Helvetica, Arial-Unicode, Arial, Sans-serif">Created by Dinosoft Labs</text><text x="0" y="90" fill="#000000" font-size="5px" font-weight="bold" font-family="'Helvetica Neue', Helvetica, Arial-Unicode, Arial, Sans-serif">from the Noun Project</text></svg>