<?xml version="1.0" encoding="utf-8"?>
<!-- Generator: Adobe Illustrator 22.1.0, SVG Export Plug-In . SVG Version: 6.00 Build 0)  -->
<svg version="1.1" id="Capa_1" xmlns="http://www.w3.org/2000/svg" xmlns:xlink="http://www.w3.org/1999/xlink" x="0px" y="0px"
	 viewBox="0 0 70 87.5" style="enable-background:new 0 0 70 87.5;" xml:space="preserve">
<g>
	<g>
		<g>
			<path d="M54.7,41.6l-0.9-0.4c1.2-2.8,1.8-5.7,1.8-8.7c0-3.8-1-7.6-2.9-10.9l-0.1-0.1c-3.9-6.6-10.7-10.6-18.4-10.8
				c-0.2,0-0.3,0-0.4,0c-0.1,0-0.3,0-0.4,0c-7.6,0.1-14.6,4.3-18.4,10.8l-0.1,0.1C13,24.9,12,28.7,12,32.5c0,2.7,0.5,5.3,1.4,7.7
				l-0.9,0.4c-1-2.6-1.5-5.3-1.5-8.1c0-4,1-7.9,3-11.3v0l0.1-0.1c4-6.9,11.4-11.2,19.3-11.4c0.3,0,0.6,0,0.9,0
				c8,0.1,15.2,4.4,19.3,11.4l0.1,0.1c2,3.4,3,7.3,3,11.3C56.5,35.7,55.9,38.7,54.7,41.6z"/>
		</g>
		<g>
			<path d="M52.7,45.2L52,44.5l0.9,0.5C52.8,45,52.8,45.1,52.7,45.2z"/>
		</g>
		<g>
			<path d="M24,47.1c-1.9-4.1-2.9-9.2-2.9-14.5c0-3.9,0.6-7.8,1.6-11.2l0-0.1c2.2-6.9,6.1-11.2,10.5-11.5c0.3,0,0.6,0,0.9,0
				c4.4,0.3,8.4,4.6,10.5,11.5l0,0.1c1.1,3.4,1.6,7.3,1.6,11.2c0,4.5-0.7,8.9-2.1,12.7l-0.9-0.3c1.3-3.6,2.1-7.9,2.1-12.3
				c0-3.9-0.6-7.7-1.6-11l0-0.1c-2-6.5-5.6-10.5-9.6-10.7c-0.1,0-0.3,0-0.4,0c-0.1,0-0.3,0-0.4,0c-4,0.2-7.6,4.2-9.6,10.7l0,0.1
				c-1.1,3.3-1.6,7.1-1.6,11c0,5.2,1,10.2,2.8,14.1L24,47.1z"/>
		</g>
		<g>
			<rect x="14.5" y="20.9" width="38.6" height="1"/>
		</g>
		<g>
			<rect x="11.5" y="32" width="44.6" height="1"/>
		</g>
		<g>
			<rect x="33.3" y="10.2" width="1" height="34.4"/>
		</g>
	</g>
	<g>
		<g>
			<path d="M12,62.8c-0.1,0-0.2,0-0.2-0.1l-8.1-4.1c-0.2-0.1-0.3-0.4-0.2-0.7L13.1,39c0.1-0.2,0.4-0.3,0.7-0.2l8.1,4
				c0.1,0.1,0.2,0.2,0.3,0.3c0,0.1,0,0.3,0,0.4l-9.6,19.1c-0.1,0.1-0.2,0.2-0.3,0.3C12.1,62.8,12.1,62.8,12,62.8z M4.6,57.9l7.2,3.7
				l9.1-18.2l-7.2-3.5L4.6,57.9z"/>
		</g>
		<g>
			<path d="M59.3,62.8c-0.1,0-0.1,0-0.2,0c-0.1-0.1-0.2-0.2-0.3-0.3l-7.8-19.8c0-0.1,0-0.3,0-0.4c0.1-0.1,0.2-0.2,0.3-0.3l8.4-3.2
				c0.3-0.1,0.5,0,0.6,0.3l7.9,19.7c0.1,0.3,0,0.5-0.3,0.6l-8.5,3.4C59.5,62.8,59.4,62.8,59.3,62.8z M52.2,42.7l7.4,18.9l7.5-3
				l-7.5-18.8L52.2,42.7z"/>
		</g>
		<g>
			<path d="M10,56.7c-0.1,0-0.1,0-0.2,0c-0.1,0-0.1-0.1-0.2-0.1c-0.1-0.1-0.2-0.2-0.2-0.3c0-0.1,0-0.1,0-0.2c0-0.1,0.1-0.1,0.1-0.2
				c0,0,0.1-0.1,0.2-0.1c0.1-0.1,0.3-0.1,0.4,0c0.1,0,0.1,0.1,0.2,0.1c0,0,0.1,0.1,0.1,0.2c0,0.1,0,0.1,0,0.2c0,0.1,0,0.3-0.1,0.3
				c0,0-0.1,0.1-0.2,0.1C10.2,56.7,10.1,56.7,10,56.7z"/>
		</g>
		<g>
			<path d="M62.2,56.7c-0.1,0-0.3-0.1-0.3-0.2c0,0-0.1-0.1-0.1-0.2c0-0.1,0-0.1,0-0.2c0-0.1,0-0.1,0-0.2c0-0.1,0.1-0.1,0.1-0.2
				c0.2-0.2,0.5-0.2,0.7,0c0,0,0.1,0.1,0.1,0.2c0,0.1,0,0.1,0,0.2c0,0.1,0,0.3-0.1,0.3c0,0-0.1,0.1-0.2,0.1
				C62.3,56.7,62.2,56.7,62.2,56.7z"/>
		</g>
		<g>
			<path d="M23.8,47.8c-0.1,0-0.2,0-0.2-0.1L20.2,46c-0.2-0.1-0.3-0.4-0.2-0.7c0.1-0.2,0.4-0.3,0.7-0.2l3.1,1.5l5-2.8
				c1-0.6,2.2-0.8,3.2-0.6c0.8,0.1,1.4,0.4,1.9,0.9c0.2,0.2,0.2,0.5,0,0.7c-0.2,0.2-0.5,0.2-0.7,0c-0.4-0.3-0.8-0.5-1.4-0.6
				c-0.8-0.1-1.7,0.1-2.6,0.5l-5.3,3C23.9,47.7,23.9,47.8,23.8,47.8z"/>
		</g>
		<g>
			<path d="M17.5,63.3c-0.1,0-0.2,0-0.3-0.1l-4.4-2.7c-0.2-0.1-0.3-0.5-0.2-0.7c0.1-0.2,0.5-0.3,0.7-0.2l4.4,2.7
				c0.2,0.1,0.3,0.5,0.2,0.7C17.9,63.2,17.7,63.3,17.5,63.3z"/>
		</g>
		<g>
			<path d="M19.8,66.8c-0.5,0-1-0.1-1.4-0.5l-0.7-0.5c-0.5-0.4-0.9-0.9-1-1.6c-0.1-0.6,0.1-1.3,0.4-1.8c0.8-1.1,2.3-1.3,3.4-0.5
				l0.7,0.5c0.5,0.4,0.9,0.9,1,1.6c0.1,0.6-0.1,1.3-0.4,1.8C21.3,66.5,20.5,66.8,19.8,66.8z M19.1,62.5c-0.4,0-0.9,0.2-1.1,0.6
				c-0.2,0.3-0.3,0.7-0.3,1c0.1,0.4,0.3,0.7,0.6,0.9l0,0l0.7,0.5c0.6,0.5,1.5,0.3,2-0.3c0.2-0.3,0.3-0.7,0.3-1
				c-0.1-0.4-0.3-0.7-0.6-0.9l-0.7-0.5C19.7,62.6,19.4,62.5,19.1,62.5z"/>
		</g>
		<g>
			<path d="M22.8,69.8c-0.5,0-1-0.1-1.4-0.4c-0.6-0.4-1-0.9-1.1-1.6c-0.2-0.7,0-1.5,0.4-2.2l0.6-0.9l0,0c0.9-1.3,2.6-1.8,3.8-1
				c0.6,0.4,1,0.9,1.1,1.6c0.2,0.7,0,1.5-0.4,2.2l-0.6,0.9C24.7,69.3,23.8,69.8,22.8,69.8z M22.2,65.2l-0.6,0.9
				c-0.3,0.4-0.4,1-0.3,1.5c0.1,0.4,0.3,0.8,0.7,1c0.8,0.5,1.9,0.2,2.4-0.7L25,67c0.3-0.4,0.4-1,0.3-1.5c-0.1-0.4-0.3-0.8-0.7-1
				C23.8,64,22.7,64.3,22.2,65.2L22.2,65.2z"/>
		</g>
		<g>
			<path d="M26,72.5c-0.5,0-1.1-0.2-1.5-0.5c-0.5-0.4-0.9-1-1-1.7c-0.1-0.7,0.1-1.5,0.6-2l1.9-2.5l0,0c0.9-1.2,2.6-1.5,3.7-0.6
				c0.5,0.4,0.9,1,1,1.7c0.1,0.7-0.1,1.5-0.6,2l-1.9,2.5C27.7,72.1,26.9,72.5,26,72.5z M26.8,66.4l-1.9,2.5
				c-0.3,0.4-0.4,0.8-0.4,1.3c0.1,0.4,0.3,0.8,0.6,1c0.7,0.5,1.7,0.3,2.3-0.4l1.9-2.5c0.3-0.4,0.4-0.8,0.4-1.3
				c-0.1-0.4-0.3-0.8-0.6-1C28.4,65.5,27.4,65.7,26.8,66.4L26.8,66.4z"/>
		</g>
		<g>
			<path d="M30,74.4c-0.6,0-1.1-0.2-1.6-0.6c-0.6-0.4-1-1.1-1.1-1.7c-0.1-0.6,0.1-1.1,0.4-1.6l1.5-2c0,0,0,0,0,0
				c0.8-1,2.3-1.1,3.4-0.3c0.6,0.4,1,1.1,1.1,1.7c0.1,0.6-0.1,1.1-0.4,1.6l-1.5,2C31.3,74.1,30.7,74.4,30,74.4z M30,69.1l-1.5,2
				c-0.2,0.3-0.2,0.6-0.2,0.8c0.1,0.4,0.3,0.8,0.7,1.1c0.7,0.5,1.6,0.5,2-0.1l1.5-2c0.2-0.3,0.2-0.6,0.2-0.8
				c-0.1-0.4-0.3-0.8-0.7-1.1C31.3,68.5,30.4,68.6,30,69.1L30,69.1z"/>
		</g>
		<g>
			<path d="M37.8,74.9c-2.7,0-5.5-2.8-5.6-2.9c-0.2-0.2-0.2-0.5,0-0.7c0.2-0.2,0.5-0.2,0.7,0c0,0,3.1,3,5.4,2.5
				c0.9-0.2,1.6-0.8,2.1-2c0.1-0.3,0.4-0.4,0.7-0.3c0.3,0.1,0.4,0.4,0.3,0.7c-0.6,1.5-1.6,2.4-2.8,2.6C38.3,74.9,38,74.9,37.8,74.9z
				"/>
		</g>
		<g>
			<path d="M42.4,72.6c-3.3,0-6-4.6-6.1-4.8c-0.1-0.2-0.1-0.5,0.2-0.7c0.2-0.1,0.5-0.1,0.7,0.2c0,0,2.5,4.3,5.2,4.3c0,0,0,0,0,0
				c1.2,0,2.3-0.9,3.3-2.6c0.1-0.2,0.4-0.3,0.7-0.2c0.2,0.1,0.3,0.4,0.2,0.7C45.4,71.6,44,72.6,42.4,72.6
				C42.4,72.6,42.4,72.6,42.4,72.6z"/>
		</g>
		<g>
			<path d="M47.6,69.9c-3.7,0-7.4-5.9-7.5-6.2c-0.1-0.2-0.1-0.5,0.2-0.7c0.2-0.1,0.5-0.1,0.7,0.2c1,1.6,4.3,5.8,6.8,5.7
				c1.2-0.1,2.2-1,3-2.8c0.1-0.3,0.4-0.4,0.7-0.2c0.3,0.1,0.4,0.4,0.2,0.7c-1,2.1-2.3,3.3-3.8,3.4C47.7,69.9,47.7,69.9,47.6,69.9z"
				/>
		</g>
		<g>
			<path d="M52.5,66.8c0,0-0.1,0-0.1,0c-3.5-0.1-8.3-6.8-8.5-7c-0.2-0.2-0.1-0.5,0.1-0.7c0.2-0.2,0.5-0.1,0.7,0.1
				c1.3,1.8,5.2,6.5,7.7,6.6c0.5,0,1-0.2,1.3-0.6c0.7-0.9,1.1-1.7,1-2.4c-0.1-0.8-0.6-1.4-1-1.7c-1.1-0.9-2.2-1.9-3.2-2.9
				c-1.9-2-4.2-3.6-6.7-4.8l-6.1-3c-0.5-0.3-1.2-0.3-1.7,0c-0.5,0.2-0.9,0.6-1.1,1.1c-0.4,1.1-1.2,2.5-2.5,3
				c-0.8,0.3-1.8,0.3-2.7-0.2c0,0-2.4-1.2-1-4.9c0.7-1.9,2.2-3.5,4.1-4.7c2.7-1.6,5.9-1.9,8.8-0.9l5.8,1.9l5-1.4
				c0.3-0.1,0.5,0.1,0.6,0.4c0.1,0.3-0.1,0.5-0.4,0.6l-5.2,1.4c-0.1,0-0.2,0-0.3,0l-5.9-2c-2.7-0.9-5.6-0.6-8,0.8
				c-1.7,1-3,2.5-3.6,4.2c-1.1,2.8,0.5,3.6,0.5,3.7c0.7,0.3,1.4,0.4,1.9,0.2c1-0.4,1.7-1.7,2-2.5c0.3-0.8,0.9-1.4,1.6-1.7
				c0.8-0.4,1.8-0.4,2.6,0l6.1,3c2.6,1.3,4.9,3,7,5c1,1,2,1.9,3.1,2.9c0.8,0.7,1.3,1.5,1.4,2.4c0.1,1-0.3,2.1-1.2,3.1
				C54,66.5,53.3,66.8,52.5,66.8z"/>
		</g>
		<g>
			<path d="M54.6,61.8c-0.2,0-0.4-0.1-0.5-0.4c-0.1-0.3,0.1-0.5,0.3-0.6l3.8-1.2c0.3-0.1,0.5,0.1,0.6,0.3c0.1,0.3-0.1,0.5-0.3,0.6
				l-3.8,1.2C54.7,61.7,54.7,61.8,54.6,61.8z"/>
		</g>
	</g>
</g>
</svg>
