<?xml version="1.0" encoding="utf-8"?>
<!-- Generator: Adobe Illustrator 22.1.0, SVG Export Plug-In . SVG Version: 6.00 Build 0)  -->
<svg version="1.1" id="Capa_1" xmlns="http://www.w3.org/2000/svg" xmlns:xlink="http://www.w3.org/1999/xlink" x="0px" y="0px"
	 viewBox="0 0 100 125" style="enable-background:new 0 0 100 125;" xml:space="preserve">
<path d="M98.2,43.2L88.1,25.8H59.8v16.7H48.4v-8.3h-6.6v-8.3H28.5h-2H13.3v8.3H6.7v8.3H1.8v21.3h7.4c-0.1,0.4-0.1,0.9-0.1,1.3
	c0,5,4,9,9,9s9-4,9-9c0-0.5,0-0.9-0.1-1.3h33.8h1h8.3C70,64.3,70,64.7,70,65.2c0,5,4,9,9,9s9-4,9-9c0-0.5,0-0.9-0.1-1.3h10.3V43.2z
	 M61.8,27.8h25.1l3.7,6.3H77.2v2h14.6l3.7,6.3H61.8V27.8z M46.4,36.2v6.3H35.2v-6.3h6.6H46.4z M21.9,36.2h4.6h2h4.6v6.3H21.9V36.2z
	 M28.5,27.8h11.3v6.3h-4.6h-2h-4.6V27.8z M15.3,27.8h11.3v6.3h-4.6h-2h-4.6V27.8z M8.7,36.2h4.6h6.6v6.3H8.7V36.2z M18.1,72.2
	c-3.9,0-7-3.1-7-7s3.1-7,7-7s7,3.1,7,7S22,72.2,18.1,72.2z M59.8,61.8H26.5c-1.3-3.3-4.6-5.7-8.4-5.7s-7,2.4-8.4,5.7h-6V44.5h2.8
	h13.3h2h11.3h2h13.3h11.4V61.8z M79,72.2c-3.9,0-7-3.1-7-7s3.1-7,7-7s7,3.1,7,7S82.9,72.2,79,72.2z M87.4,61.8
	c-1.3-3.3-4.6-5.7-8.4-5.7s-7,2.4-8.4,5.7h-8.8V44.5h34.3v17.3H87.4z"/>
</svg>
