<?xml version="1.0" encoding="utf-8"?>
<!-- Generator: Adobe Illustrator 22.1.0, SVG Export Plug-In . SVG Version: 6.00 Build 0)  -->
<svg version="1.1" id="Capa_1" xmlns="http://www.w3.org/2000/svg" xmlns:xlink="http://www.w3.org/1999/xlink" x="0px" y="0px"
	 viewBox="0 0 200 100" style="enable-background:new 0 0 200 100;" xml:space="preserve">
<style type="text/css">
	.st0{fill:#BA8527;}
	.st1{fill:#FFFFFF;}
	.st2{opacity:0.99;fill:#34949A;}
</style>
<polygon class="st0" points="24.6,22.1 100.4,3.8 174.6,22.1 173.3,30.2 100.4,11.8 26.4,30.2 "/>
<polygon class="st0" points="36.5,31.9 65,24.9 65,60.6 68.8,60.6 68.8,24.9 97.8,18.5 97.8,60.6 101.9,60.6 101.9,17 130.2,24.4 
	130.2,60.6 135.3,60.6 135.3,24.9 163.8,32.5 163.8,62.3 200,66.2 0,66.2 35.7,62.9 "/>
<polygon class="st1" points="39.3,34.7 39.3,39.7 61.9,39.7 61.9,30.2 "/>
<rect x="39.3" y="43.6" class="st1" width="10.3" height="15.9"/>
<rect x="52.9" y="43.6" class="st1" width="9" height="15.9"/>
<polygon class="st1" points="94.5,59.5 94.5,21.6 71.6,26.9 71.6,59.5 "/>
<rect x="105.3" y="35" class="st1" width="9" height="24.5"/>
<polygon class="st1" points="105.3,21.6 105.3,30.2 128.1,30.2 128.1,27.2 "/>
<rect x="117.8" y="35" class="st1" width="10.3" height="24.5"/>
<polygon class="st1" points="137.6,30.2 137.6,59.5 161,59.5 161,33.9 137.6,28.3 "/>
<g>
	<g>
		<path class="st2" d="M79.6,93.2l3.1-0.5h0.6l3.4,0.5v1.3h-7.1V93.2z M88.7,72h1.8l7.1,22.6h-2.9l-6.2-20h0.7l-6.3,20h-1.4L88.7,72
			z M85.1,85.7h8.3l0.5,1.5h-9.3L85.1,85.7z M91.2,93.2l3.9-0.5h0.6l3.8,0.5v1.3h-8.3V93.2z"/>
		<path class="st2" d="M101.2,73.5v-1.3h4.3V74h-0.3L101.2,73.5z M105.8,92.7l4,0.5v1.3h-8.6v-1.3l4-0.5H105.8z M104.1,82.5
			c0-3.4,0-6.9-0.1-10.4h3c-0.1,3.5-0.1,6.8-0.1,10.7v1c0,3.8,0,7.3,0.1,10.7h-3c0.1-3.4,0.1-6.9,0.1-10.4V82.5z M105.5,82.7h3.9
			c3.3,0,4.9-1.9,4.9-4.6c0-2.8-1.4-4.3-4.6-4.3h-4.2v-1.5h4.2c4.7,0,7.5,2.2,7.5,5.9c0,2.8-2.1,5.4-6.1,5.8l0.1-0.3
			c2.2,0.2,3.6,1.3,4.4,4.3l1.5,5.6l-1-0.6l3.2,0.4v1.3c-0.6,0.2-1.3,0.3-2.2,0.3c-1.9,0-2.7-0.5-3.1-2.1l-1.3-5.5
			c-0.6-2.7-1.8-3.2-4.3-3.2h-2.9V82.7z"/>
	</g>
</g>
</svg>
